%TF.GenerationSoftware,KiCad,Pcbnew,8.0.4-8.0.4-0~ubuntu24.04.1*%
%TF.CreationDate,2024-08-14T22:02:52+02:00*%
%TF.ProjectId,test_pcb,74657374-5f70-4636-922e-6b696361645f,rev?*%
%TF.SameCoordinates,Original*%
%TF.FileFunction,Legend,Bot*%
%TF.FilePolarity,Positive*%
%FSLAX46Y46*%
G04 Gerber Fmt 4.6, Leading zero omitted, Abs format (unit mm)*
G04 Created by KiCad (PCBNEW 8.0.4-8.0.4-0~ubuntu24.04.1) date 2024-08-14 22:02:52*
%MOMM*%
%LPD*%
G01*
G04 APERTURE LIST*
%ADD10C,1.600000*%
%ADD11O,1.600000X1.600000*%
%ADD12R,1.700000X1.600000*%
%ADD13R,1.600000X1.600000*%
G04 APERTURE END LIST*
%LPC*%
D10*
X156080000Y-69000000D03*
D11*
X145920000Y-69000000D03*
D10*
X155420000Y-87000000D03*
D11*
X165580000Y-87000000D03*
D10*
X157420000Y-83000000D03*
D11*
X167580000Y-83000000D03*
D12*
X197500000Y-103200000D03*
D10*
X197500000Y-100660000D03*
X197500000Y-98120000D03*
X197500000Y-95580000D03*
X197500000Y-93040000D03*
X197500000Y-90500000D03*
X175500000Y-90500000D03*
X175500000Y-93040000D03*
X175500000Y-95580000D03*
X175500000Y-98120000D03*
X175500000Y-100660000D03*
X175500000Y-103200000D03*
D11*
X169580000Y-79500000D03*
D10*
X159420000Y-79500000D03*
D13*
X130720000Y-121260000D03*
D11*
X133260000Y-121260000D03*
X135800000Y-121260000D03*
X138340000Y-121260000D03*
X140880000Y-121260000D03*
X143420000Y-121260000D03*
X145960000Y-121260000D03*
X148500000Y-121260000D03*
X153580000Y-121260000D03*
X156120000Y-121260000D03*
X158660000Y-121260000D03*
X161200000Y-121260000D03*
X163740000Y-121260000D03*
X166280000Y-121260000D03*
X166280000Y-73000000D03*
X163740000Y-73000000D03*
X161200000Y-73000000D03*
X158660000Y-73000000D03*
X156120000Y-73000000D03*
X153580000Y-73000000D03*
X151040000Y-73000000D03*
X148500000Y-73000000D03*
X144440000Y-73000000D03*
X141900000Y-73000000D03*
X139360000Y-73000000D03*
X136820000Y-73000000D03*
X134280000Y-73000000D03*
X131740000Y-73000000D03*
X129200000Y-73000000D03*
X126660000Y-73000000D03*
X124120000Y-73000000D03*
X121580000Y-73000000D03*
X127500000Y-89420000D03*
X127500000Y-91960000D03*
X127500000Y-94500000D03*
X127500000Y-97040000D03*
X127500000Y-99580000D03*
X127500000Y-102120000D03*
X127500000Y-104660000D03*
X127500000Y-107200000D03*
X119880000Y-107200000D03*
X119880000Y-104660000D03*
X119880000Y-102120000D03*
X119880000Y-99580000D03*
X119880000Y-97040000D03*
X119880000Y-94500000D03*
X119880000Y-91960000D03*
D13*
X119880000Y-89420000D03*
%LPD*%
M02*
