%TF.GenerationSoftware,KiCad,Pcbnew,8.0.4-8.0.4-0~ubuntu24.04.1*%
%TF.CreationDate,2024-08-14T22:02:52+02:00*%
%TF.ProjectId,test_pcb,74657374-5f70-4636-922e-6b696361645f,rev?*%
%TF.SameCoordinates,Original*%
%TF.FileFunction,Copper,L2,Bot*%
%TF.FilePolarity,Positive*%
%FSLAX46Y46*%
G04 Gerber Fmt 4.6, Leading zero omitted, Abs format (unit mm)*
G04 Created by KiCad (PCBNEW 8.0.4-8.0.4-0~ubuntu24.04.1) date 2024-08-14 22:02:52*
%MOMM*%
%LPD*%
G01*
G04 APERTURE LIST*
%TA.AperFunction,ComponentPad*%
%ADD10C,1.600000*%
%TD*%
%TA.AperFunction,ComponentPad*%
%ADD11O,1.600000X1.600000*%
%TD*%
%TA.AperFunction,ComponentPad*%
%ADD12R,1.700000X1.600000*%
%TD*%
%TA.AperFunction,ComponentPad*%
%ADD13R,1.600000X1.600000*%
%TD*%
%TA.AperFunction,Conductor*%
%ADD14C,0.200000*%
%TD*%
G04 APERTURE END LIST*
D10*
X156080000Y-69000000D03*
D11*
X145920000Y-69000000D03*
D10*
X155420000Y-87000000D03*
D11*
X165580000Y-87000000D03*
D10*
X157420000Y-83000000D03*
D11*
X167580000Y-83000000D03*
D12*
X197500000Y-103200000D03*
D10*
X197500000Y-100660000D03*
X197500000Y-98120000D03*
X197500000Y-95580000D03*
X197500000Y-93040000D03*
X197500000Y-90500000D03*
X175500000Y-90500000D03*
X175500000Y-93040000D03*
X175500000Y-95580000D03*
X175500000Y-98120000D03*
X175500000Y-100660000D03*
X175500000Y-103200000D03*
D11*
X169580000Y-79500000D03*
D10*
X159420000Y-79500000D03*
D13*
X130720000Y-121260000D03*
D11*
X133260000Y-121260000D03*
X135800000Y-121260000D03*
X138340000Y-121260000D03*
X140880000Y-121260000D03*
X143420000Y-121260000D03*
X145960000Y-121260000D03*
X148500000Y-121260000D03*
X153580000Y-121260000D03*
X156120000Y-121260000D03*
X158660000Y-121260000D03*
X161200000Y-121260000D03*
X163740000Y-121260000D03*
X166280000Y-121260000D03*
X166280000Y-73000000D03*
X163740000Y-73000000D03*
X161200000Y-73000000D03*
X158660000Y-73000000D03*
X156120000Y-73000000D03*
X153580000Y-73000000D03*
X151040000Y-73000000D03*
X148500000Y-73000000D03*
X144440000Y-73000000D03*
X141900000Y-73000000D03*
X139360000Y-73000000D03*
X136820000Y-73000000D03*
X134280000Y-73000000D03*
X131740000Y-73000000D03*
X129200000Y-73000000D03*
X126660000Y-73000000D03*
X124120000Y-73000000D03*
X121580000Y-73000000D03*
X127500000Y-89420000D03*
X127500000Y-91960000D03*
X127500000Y-94500000D03*
X127500000Y-97040000D03*
X127500000Y-99580000D03*
X127500000Y-102120000D03*
X127500000Y-104660000D03*
X127500000Y-107200000D03*
X119880000Y-107200000D03*
X119880000Y-104660000D03*
X119880000Y-102120000D03*
X119880000Y-99580000D03*
X119880000Y-97040000D03*
X119880000Y-94500000D03*
X119880000Y-91960000D03*
D13*
X119880000Y-89420000D03*
D14*
X127500000Y-97040000D02*
X126368630Y-97040000D01*
X126368630Y-97040000D02*
X126000000Y-96671370D01*
X126000000Y-96671370D02*
X126000000Y-76200000D01*
X126000000Y-76200000D02*
X129200000Y-73000000D01*
X127500000Y-97040000D02*
X126000000Y-98540000D01*
X126000000Y-98540000D02*
X126000000Y-101080000D01*
X126000000Y-101080000D02*
X119880000Y-107200000D01*
X127500000Y-104660000D02*
X140880000Y-118040000D01*
X140880000Y-118040000D02*
X140880000Y-121260000D01*
X127500000Y-94500000D02*
X131435635Y-94500000D01*
X131435635Y-94500000D02*
X152480000Y-73455635D01*
X152480000Y-73455635D02*
X152480000Y-72544365D01*
X159700000Y-71500000D02*
X161200000Y-73000000D01*
X152480000Y-72544365D02*
X153524365Y-71500000D01*
X153524365Y-71500000D02*
X159700000Y-71500000D01*
X127500000Y-99580000D02*
X128631370Y-99580000D01*
X128631370Y-99580000D02*
X155000000Y-73211370D01*
X155000000Y-73211370D02*
X155000000Y-72564365D01*
X155000000Y-72564365D02*
X155664365Y-71900000D01*
X155664365Y-71900000D02*
X157560000Y-71900000D01*
X157560000Y-71900000D02*
X158660000Y-73000000D01*
X127500000Y-102120000D02*
X156120000Y-73500000D01*
X156120000Y-73500000D02*
X156120000Y-73000000D01*
X153580000Y-73660000D02*
X153580000Y-73000000D01*
M02*
