M48
; DRILL file {KiCad 8.0.4-8.0.4-0~ubuntu24.04.1} date 2024-08-14T22:04:41+0200
; FORMAT={-:-/ absolute / metric / decimal}
; #@! TF.CreationDate,2024-08-14T22:04:41+02:00
; #@! TF.GenerationSoftware,Kicad,Pcbnew,8.0.4-8.0.4-0~ubuntu24.04.1
; #@! TF.FileFunction,Plated,1,2,PTH
FMAT,2
METRIC
; #@! TA.AperFunction,Plated,PTH,ComponentDrill
T1C0.800
; #@! TA.AperFunction,Plated,PTH,ComponentDrill
T2C1.000
%
G90
G05
T1
X119.88Y-89.42
X119.88Y-91.96
X119.88Y-94.5
X119.88Y-97.04
X119.88Y-99.58
X119.88Y-102.12
X119.88Y-104.66
X119.88Y-107.2
X127.5Y-89.42
X127.5Y-91.96
X127.5Y-94.5
X127.5Y-97.04
X127.5Y-99.58
X127.5Y-102.12
X127.5Y-104.66
X127.5Y-107.2
X145.92Y-69.0
X155.42Y-87.0
X156.08Y-69.0
X157.42Y-83.0
X159.42Y-79.5
X165.58Y-87.0
X167.58Y-83.0
X169.58Y-79.5
T2
X121.58Y-73.0
X124.12Y-73.0
X126.66Y-73.0
X129.2Y-73.0
X130.72Y-121.26
X131.74Y-73.0
X133.26Y-121.26
X134.28Y-73.0
X135.8Y-121.26
X136.82Y-73.0
X138.34Y-121.26
X139.36Y-73.0
X140.88Y-121.26
X141.9Y-73.0
X143.42Y-121.26
X144.44Y-73.0
X145.96Y-121.26
X148.5Y-73.0
X148.5Y-121.26
X151.04Y-73.0
X153.58Y-73.0
X153.58Y-121.26
X156.12Y-73.0
X156.12Y-121.26
X158.66Y-73.0
X158.66Y-121.26
X161.2Y-73.0
X161.2Y-121.26
X163.74Y-73.0
X163.74Y-121.26
X166.28Y-73.0
X166.28Y-121.26
X175.5Y-90.5
X175.5Y-93.04
X175.5Y-95.58
X175.5Y-98.12
X175.5Y-100.66
X175.5Y-103.2
X197.5Y-90.5
X197.5Y-93.04
X197.5Y-95.58
X197.5Y-98.12
X197.5Y-100.66
X197.5Y-103.2
M30
