%TF.GenerationSoftware,KiCad,Pcbnew,8.0.4-8.0.4-0~ubuntu24.04.1*%
%TF.CreationDate,2024-08-14T22:02:52+02:00*%
%TF.ProjectId,test_pcb,74657374-5f70-4636-922e-6b696361645f,rev?*%
%TF.SameCoordinates,Original*%
%TF.FileFunction,Legend,Top*%
%TF.FilePolarity,Positive*%
%FSLAX46Y46*%
G04 Gerber Fmt 4.6, Leading zero omitted, Abs format (unit mm)*
G04 Created by KiCad (PCBNEW 8.0.4-8.0.4-0~ubuntu24.04.1) date 2024-08-14 22:02:52*
%MOMM*%
%LPD*%
G01*
G04 APERTURE LIST*
%ADD10C,0.120000*%
%ADD11C,0.100000*%
%ADD12C,1.600000*%
%ADD13O,1.600000X1.600000*%
%ADD14R,1.700000X1.600000*%
%ADD15R,1.600000X1.600000*%
G04 APERTURE END LIST*
D10*
X155040000Y-69000000D02*
X154270000Y-69000000D01*
X154270000Y-70370000D02*
X154270000Y-67630000D01*
X154270000Y-67630000D02*
X147730000Y-67630000D01*
X147730000Y-70370000D02*
X154270000Y-70370000D01*
X147730000Y-67630000D02*
X147730000Y-70370000D01*
X146960000Y-69000000D02*
X147730000Y-69000000D01*
X156460000Y-87000000D02*
X157230000Y-87000000D01*
X157230000Y-85630000D02*
X157230000Y-88370000D01*
X157230000Y-88370000D02*
X163770000Y-88370000D01*
X163770000Y-85630000D02*
X157230000Y-85630000D01*
X163770000Y-88370000D02*
X163770000Y-85630000D01*
X164540000Y-87000000D02*
X163770000Y-87000000D01*
X158460000Y-83000000D02*
X159230000Y-83000000D01*
X159230000Y-81630000D02*
X159230000Y-84370000D01*
X159230000Y-84370000D02*
X165770000Y-84370000D01*
X165770000Y-81630000D02*
X159230000Y-81630000D01*
X165770000Y-84370000D02*
X165770000Y-81630000D01*
X166540000Y-83000000D02*
X165770000Y-83000000D01*
D11*
X173650000Y-132650000D02*
X199350000Y-132650000D01*
X199350000Y-61050000D01*
X173650000Y-61050000D01*
X173650000Y-132650000D01*
D10*
X168540000Y-79500000D02*
X167770000Y-79500000D01*
X167770000Y-80870000D02*
X167770000Y-78130000D01*
X167770000Y-78130000D02*
X161230000Y-78130000D01*
X161230000Y-80870000D02*
X167770000Y-80870000D01*
X161230000Y-78130000D02*
X161230000Y-80870000D01*
X160460000Y-79500000D02*
X161230000Y-79500000D01*
D11*
X120440000Y-71800000D02*
X167440000Y-71800000D01*
X167440000Y-74200000D01*
X120440000Y-74200000D01*
X120440000Y-71800000D01*
X129440000Y-120000000D02*
X167440000Y-120000000D01*
X167440000Y-122600000D01*
X129440000Y-122600000D01*
X129440000Y-120000000D01*
D10*
X124690000Y-88090000D02*
G75*
G02*
X122690000Y-88090000I-1000000J0D01*
G01*
X128830000Y-108590000D02*
X128830000Y-88030000D01*
X128830000Y-88030000D02*
X118550000Y-88030000D01*
X126340000Y-108530000D02*
X126340000Y-88090000D01*
X126340000Y-88090000D02*
X124690000Y-88090000D01*
X122690000Y-88090000D02*
X121040000Y-88090000D01*
X121040000Y-108530000D02*
X126340000Y-108530000D01*
X121040000Y-88090000D02*
X121040000Y-108530000D01*
X118550000Y-108590000D02*
X128830000Y-108590000D01*
X118550000Y-88030000D02*
X118550000Y-108590000D01*
%LPC*%
D12*
X156080000Y-69000000D03*
D13*
X145920000Y-69000000D03*
D12*
X155420000Y-87000000D03*
D13*
X165580000Y-87000000D03*
D12*
X157420000Y-83000000D03*
D13*
X167580000Y-83000000D03*
D14*
X197500000Y-103200000D03*
D12*
X197500000Y-100660000D03*
X197500000Y-98120000D03*
X197500000Y-95580000D03*
X197500000Y-93040000D03*
X197500000Y-90500000D03*
X175500000Y-90500000D03*
X175500000Y-93040000D03*
X175500000Y-95580000D03*
X175500000Y-98120000D03*
X175500000Y-100660000D03*
X175500000Y-103200000D03*
D13*
X169580000Y-79500000D03*
D12*
X159420000Y-79500000D03*
D15*
X130720000Y-121260000D03*
D13*
X133260000Y-121260000D03*
X135800000Y-121260000D03*
X138340000Y-121260000D03*
X140880000Y-121260000D03*
X143420000Y-121260000D03*
X145960000Y-121260000D03*
X148500000Y-121260000D03*
X153580000Y-121260000D03*
X156120000Y-121260000D03*
X158660000Y-121260000D03*
X161200000Y-121260000D03*
X163740000Y-121260000D03*
X166280000Y-121260000D03*
X166280000Y-73000000D03*
X163740000Y-73000000D03*
X161200000Y-73000000D03*
X158660000Y-73000000D03*
X156120000Y-73000000D03*
X153580000Y-73000000D03*
X151040000Y-73000000D03*
X148500000Y-73000000D03*
X144440000Y-73000000D03*
X141900000Y-73000000D03*
X139360000Y-73000000D03*
X136820000Y-73000000D03*
X134280000Y-73000000D03*
X131740000Y-73000000D03*
X129200000Y-73000000D03*
X126660000Y-73000000D03*
X124120000Y-73000000D03*
X121580000Y-73000000D03*
X127500000Y-89420000D03*
X127500000Y-91960000D03*
X127500000Y-94500000D03*
X127500000Y-97040000D03*
X127500000Y-99580000D03*
X127500000Y-102120000D03*
X127500000Y-104660000D03*
X127500000Y-107200000D03*
X119880000Y-107200000D03*
X119880000Y-104660000D03*
X119880000Y-102120000D03*
X119880000Y-99580000D03*
X119880000Y-97040000D03*
X119880000Y-94500000D03*
X119880000Y-91960000D03*
D15*
X119880000Y-89420000D03*
%LPD*%
M02*
