%TF.GenerationSoftware,KiCad,Pcbnew,8.0.4-8.0.4-0~ubuntu24.04.1*%
%TF.CreationDate,2024-08-14T21:56:28+02:00*%
%TF.ProjectId,test_pcb,74657374-5f70-4636-922e-6b696361645f,rev?*%
%TF.SameCoordinates,Original*%
%TF.FileFunction,Copper,L2,Bot*%
%TF.FilePolarity,Positive*%
%FSLAX46Y46*%
G04 Gerber Fmt 4.6, Leading zero omitted, Abs format (unit mm)*
G04 Created by KiCad (PCBNEW 8.0.4-8.0.4-0~ubuntu24.04.1) date 2024-08-14 21:56:28*
%MOMM*%
%LPD*%
G01*
G04 APERTURE LIST*
%TA.AperFunction,ComponentPad*%
%ADD10C,1.600000*%
%TD*%
%TA.AperFunction,ComponentPad*%
%ADD11O,1.600000X1.600000*%
%TD*%
%TA.AperFunction,ComponentPad*%
%ADD12R,1.700000X1.600000*%
%TD*%
%TA.AperFunction,ComponentPad*%
%ADD13R,1.600000X1.600000*%
%TD*%
%TA.AperFunction,Conductor*%
%ADD14C,0.200000*%
%TD*%
G04 APERTURE END LIST*
D10*
%TO.P,R1,1*%
%TO.N,Net-(https://www.electrokit.com/upload/product/41013/41013527/1LEDREDCC.pdf1-DIG4)*%
X156080000Y-69000000D03*
D11*
%TO.P,R1,2*%
%TO.N,Net-(UNO1-D8)*%
X145920000Y-69000000D03*
%TD*%
D10*
%TO.P,R4,1*%
%TO.N,Net-(UNO1-D7)*%
X155420000Y-87000000D03*
D11*
%TO.P,R4,2*%
%TO.N,Net-(https://www.electrokit.com/upload/product/41013/41013527/1LEDREDCC.pdf1-DIG3)*%
X165580000Y-87000000D03*
%TD*%
D10*
%TO.P,R3,1*%
%TO.N,Net-(UNO1-D6)*%
X157420000Y-83000000D03*
D11*
%TO.P,R3,2*%
%TO.N,Net-(https://www.electrokit.com/upload/product/41013/41013527/1LEDREDCC.pdf1-DIG2)*%
X167580000Y-83000000D03*
%TD*%
D12*
%TO.P,https://www.electrokit.com/upload/product/41013/41013527/1LEDREDCC.pdf1,1,E*%
%TO.N,Net-(U1-QF)*%
X197500000Y-103200000D03*
D10*
%TO.P,https://www.electrokit.com/upload/product/41013/41013527/1LEDREDCC.pdf1,2,D*%
%TO.N,Net-(U1-QE)*%
X197500000Y-100660000D03*
%TO.P,https://www.electrokit.com/upload/product/41013/41013527/1LEDREDCC.pdf1,3,DP*%
%TO.N,Net-(U1-QD)*%
X197500000Y-98120000D03*
%TO.P,https://www.electrokit.com/upload/product/41013/41013527/1LEDREDCC.pdf1,4,C*%
%TO.N,Net-(U1-QC)*%
X197500000Y-95580000D03*
%TO.P,https://www.electrokit.com/upload/product/41013/41013527/1LEDREDCC.pdf1,5,G*%
%TO.N,Net-(U1-QB)*%
X197500000Y-93040000D03*
%TO.P,https://www.electrokit.com/upload/product/41013/41013527/1LEDREDCC.pdf1,6,DIG4*%
%TO.N,Net-(https://www.electrokit.com/upload/product/41013/41013527/1LEDREDCC.pdf1-DIG4)*%
X197500000Y-90500000D03*
%TO.P,https://www.electrokit.com/upload/product/41013/41013527/1LEDREDCC.pdf1,7,B*%
%TO.N,Net-(U1-QA)*%
X175500000Y-90500000D03*
%TO.P,https://www.electrokit.com/upload/product/41013/41013527/1LEDREDCC.pdf1,8,DIG3*%
%TO.N,Net-(https://www.electrokit.com/upload/product/41013/41013527/1LEDREDCC.pdf1-DIG3)*%
X175500000Y-93040000D03*
%TO.P,https://www.electrokit.com/upload/product/41013/41013527/1LEDREDCC.pdf1,9,DIG2*%
%TO.N,Net-(https://www.electrokit.com/upload/product/41013/41013527/1LEDREDCC.pdf1-DIG2)*%
X175500000Y-95580000D03*
%TO.P,https://www.electrokit.com/upload/product/41013/41013527/1LEDREDCC.pdf1,10,F*%
%TO.N,Net-(U1-QH)*%
X175500000Y-98120000D03*
%TO.P,https://www.electrokit.com/upload/product/41013/41013527/1LEDREDCC.pdf1,11,A*%
%TO.N,Net-(U1-QG)*%
X175500000Y-100660000D03*
%TO.P,https://www.electrokit.com/upload/product/41013/41013527/1LEDREDCC.pdf1,12,DIG1*%
%TO.N,Net-(https://www.electrokit.com/upload/product/41013/41013527/1LEDREDCC.pdf1-DIG1)*%
X175500000Y-103200000D03*
%TD*%
D11*
%TO.P,R2,2*%
%TO.N,Net-(https://www.electrokit.com/upload/product/41013/41013527/1LEDREDCC.pdf1-DIG1)*%
X169580000Y-79500000D03*
D10*
%TO.P,R2,1*%
%TO.N,Net-(UNO1-D5)*%
X159420000Y-79500000D03*
%TD*%
D13*
%TO.P,UNO1,1,NC*%
%TO.N,unconnected-(UNO1-NC-Pad1)*%
X130720000Y-121260000D03*
D11*
%TO.P,UNO1,2,IOREF*%
%TO.N,unconnected-(UNO1-IOREF-Pad2)*%
X133260000Y-121260000D03*
%TO.P,UNO1,3,~{RESET}*%
%TO.N,unconnected-(UNO1-~{RESET}-Pad3)*%
X135800000Y-121260000D03*
%TO.P,UNO1,4,3V3*%
%TO.N,unconnected-(UNO1-3V3-Pad4)*%
X138340000Y-121260000D03*
%TO.P,UNO1,5,+5V*%
%TO.N,Net-(U1-VCC)*%
X140880000Y-121260000D03*
%TO.P,UNO1,6,GND*%
%TO.N,unconnected-(UNO1-GND-Pad6)*%
X143420000Y-121260000D03*
%TO.P,UNO1,7,GND*%
%TO.N,unconnected-(UNO1-GND-Pad7)*%
X145960000Y-121260000D03*
%TO.P,UNO1,8,VIN*%
%TO.N,unconnected-(UNO1-VIN-Pad8)*%
X148500000Y-121260000D03*
%TO.P,UNO1,9,A0*%
%TO.N,unconnected-(UNO1-A0-Pad9)*%
X153580000Y-121260000D03*
%TO.P,UNO1,10,A1*%
%TO.N,unconnected-(UNO1-A1-Pad10)*%
X156120000Y-121260000D03*
%TO.P,UNO1,11,A2*%
%TO.N,unconnected-(UNO1-A2-Pad11)*%
X158660000Y-121260000D03*
%TO.P,UNO1,12,A3*%
%TO.N,unconnected-(UNO1-A3-Pad12)*%
X161200000Y-121260000D03*
%TO.P,UNO1,13,SDA/A4*%
%TO.N,unconnected-(UNO1-SDA{slash}A4-Pad13)*%
X163740000Y-121260000D03*
%TO.P,UNO1,14,SCL/A5*%
%TO.N,unconnected-(UNO1-SCL{slash}A5-Pad14)*%
X166280000Y-121260000D03*
%TO.P,UNO1,15,D0/RX*%
%TO.N,unconnected-(UNO1-D0{slash}RX-Pad15)*%
X166280000Y-73000000D03*
%TO.P,UNO1,16,D1/TX*%
%TO.N,unconnected-(UNO1-D1{slash}TX-Pad16)*%
X163740000Y-73000000D03*
%TO.P,UNO1,17,D2*%
%TO.N,Net-(U1-SER)*%
X161200000Y-73000000D03*
%TO.P,UNO1,18,D3*%
%TO.N,Net-(U1-RCLK)*%
X158660000Y-73000000D03*
%TO.P,UNO1,19,D4*%
%TO.N,Net-(U1-SRCLK)*%
X156120000Y-73000000D03*
%TO.P,UNO1,20,D5*%
%TO.N,Net-(UNO1-D5)*%
X153580000Y-73000000D03*
%TO.P,UNO1,21,D6*%
%TO.N,Net-(UNO1-D6)*%
X151040000Y-73000000D03*
%TO.P,UNO1,22,D7*%
%TO.N,Net-(UNO1-D7)*%
X148500000Y-73000000D03*
%TO.P,UNO1,23,D8*%
%TO.N,Net-(UNO1-D8)*%
X144440000Y-73000000D03*
%TO.P,UNO1,24,D9*%
%TO.N,unconnected-(UNO1-D9-Pad24)*%
X141900000Y-73000000D03*
%TO.P,UNO1,25,D10*%
%TO.N,unconnected-(UNO1-D10-Pad25)*%
X139360000Y-73000000D03*
%TO.P,UNO1,26,D11*%
%TO.N,unconnected-(UNO1-D11-Pad26)*%
X136820000Y-73000000D03*
%TO.P,UNO1,27,D12*%
%TO.N,unconnected-(UNO1-D12-Pad27)*%
X134280000Y-73000000D03*
%TO.P,UNO1,28,D13*%
%TO.N,unconnected-(UNO1-D13-Pad28)*%
X131740000Y-73000000D03*
%TO.P,UNO1,29,GND*%
%TO.N,Net-(U1-GND)*%
X129200000Y-73000000D03*
%TO.P,UNO1,30,AREF*%
%TO.N,unconnected-(UNO1-AREF-Pad30)*%
X126660000Y-73000000D03*
%TO.P,UNO1,31,SDA/A4*%
%TO.N,unconnected-(UNO1-SDA{slash}A4-Pad31)*%
X124120000Y-73000000D03*
%TO.P,UNO1,32,SCL/A5*%
%TO.N,unconnected-(UNO1-SCL{slash}A5-Pad32)*%
X121580000Y-73000000D03*
%TD*%
%TO.P,U1,16,VCC*%
%TO.N,Net-(U1-VCC)*%
X127500000Y-89420000D03*
%TO.P,U1,15,QA*%
%TO.N,Net-(U1-QA)*%
X127500000Y-91960000D03*
%TO.P,U1,14,SER*%
%TO.N,Net-(U1-SER)*%
X127500000Y-94500000D03*
%TO.P,U1,13,~{OE}*%
%TO.N,Net-(U1-GND)*%
X127500000Y-97040000D03*
%TO.P,U1,12,RCLK*%
%TO.N,Net-(U1-RCLK)*%
X127500000Y-99580000D03*
%TO.P,U1,11,SRCLK*%
%TO.N,Net-(U1-SRCLK)*%
X127500000Y-102120000D03*
%TO.P,U1,10,~{SRCLR}*%
%TO.N,Net-(U1-VCC)*%
X127500000Y-104660000D03*
%TO.P,U1,9,QH'*%
%TO.N,unconnected-(U1-QH'-Pad9)*%
X127500000Y-107200000D03*
%TO.P,U1,8,GND*%
%TO.N,Net-(U1-GND)*%
X119880000Y-107200000D03*
%TO.P,U1,7,QH*%
%TO.N,Net-(U1-QH)*%
X119880000Y-104660000D03*
%TO.P,U1,6,QG*%
%TO.N,Net-(U1-QG)*%
X119880000Y-102120000D03*
%TO.P,U1,5,QF*%
%TO.N,Net-(U1-QF)*%
X119880000Y-99580000D03*
%TO.P,U1,4,QE*%
%TO.N,Net-(U1-QE)*%
X119880000Y-97040000D03*
%TO.P,U1,3,QD*%
%TO.N,Net-(U1-QD)*%
X119880000Y-94500000D03*
%TO.P,U1,2,QC*%
%TO.N,Net-(U1-QC)*%
X119880000Y-91960000D03*
D13*
%TO.P,U1,1,QB*%
%TO.N,Net-(U1-QB)*%
X119880000Y-89420000D03*
%TD*%
D14*
%TO.N,Net-(U1-GND)*%
X127500000Y-97040000D02*
X126368630Y-97040000D01*
X126368630Y-97040000D02*
X126000000Y-96671370D01*
X126000000Y-96671370D02*
X126000000Y-76200000D01*
X126000000Y-76200000D02*
X129200000Y-73000000D01*
X127500000Y-97040000D02*
X126000000Y-98540000D01*
X126000000Y-98540000D02*
X126000000Y-101080000D01*
X126000000Y-101080000D02*
X119880000Y-107200000D01*
%TO.N,Net-(U1-VCC)*%
X127500000Y-104660000D02*
X140880000Y-118040000D01*
X140880000Y-118040000D02*
X140880000Y-121260000D01*
%TO.N,Net-(U1-SER)*%
X127500000Y-94500000D02*
X131435635Y-94500000D01*
X131435635Y-94500000D02*
X152480000Y-73455635D01*
X152480000Y-73455635D02*
X152480000Y-72544365D01*
X159700000Y-71500000D02*
X161200000Y-73000000D01*
X152480000Y-72544365D02*
X153524365Y-71500000D01*
X153524365Y-71500000D02*
X159700000Y-71500000D01*
%TO.N,Net-(U1-RCLK)*%
X127500000Y-99580000D02*
X128631370Y-99580000D01*
X128631370Y-99580000D02*
X155000000Y-73211370D01*
X155000000Y-73211370D02*
X155000000Y-72564365D01*
X155000000Y-72564365D02*
X155664365Y-71900000D01*
X155664365Y-71900000D02*
X157560000Y-71900000D01*
X157560000Y-71900000D02*
X158660000Y-73000000D01*
%TO.N,Net-(U1-SRCLK)*%
X127500000Y-102120000D02*
X156120000Y-73500000D01*
X156120000Y-73500000D02*
X156120000Y-73000000D01*
%TO.N,Net-(UNO1-D5)*%
X153580000Y-73660000D02*
X153580000Y-73000000D01*
%TD*%
M02*
